<svg id="Layer_1" data-name="Layer 1" xmlns="http://www.w3.org/2000/svg" viewBox="0 0 19.75 28.09"><defs><style>.cls-1{fill:#2f2250;}</style></defs><path class="cls-1" d="M9.88,0A9.88,9.88,0,0,0,1.47,15.07L9.31,27.7a.84.84,0,0,0,.7.39h0a.83.83,0,0,0,.7-.4l7.64-12.76A9.87,9.87,0,0,0,9.88,0Zm7.06,14.09L10,25.69,2.87,14.2a8.24,8.24,0,1,1,14.07-.11Z"/><path class="cls-1" d="M9.88,4.94a4.94,4.94,0,1,0,4.93,4.94h0A4.94,4.94,0,0,0,9.88,4.94Zm0,8.24a3.3,3.3,0,1,1,3.29-3.3h0a3.29,3.29,0,0,1-3.29,3.3Z"/></svg>