<svg id="Layer_1" data-name="Layer 1" xmlns="http://www.w3.org/2000/svg" viewBox="0 0 22 22"><defs><style>.cls-1{fill:#2f2250;}</style></defs><path class="cls-1" d="M17,12.84a1.51,1.51,0,0,0-2.12,0L13.78,14h0c-.44.28-2.07-.35-3.73-2s-2.3-3.3-2-3.73l0,0h0l1.1-1.1A1.51,1.51,0,0,0,9.16,5L4.63.44a1.51,1.51,0,0,0-2.12,0L.79,2.16C-.3,3.25-.26,5.28.9,7.87A30.16,30.16,0,0,0,14.13,21.1a8.82,8.82,0,0,0,3.52.9,3,3,0,0,0,2.2-.79l1.72-1.71a1.51,1.51,0,0,0,0-2.12ZM3.19,1.12a.54.54,0,0,1,.75,0L8.47,5.65a.53.53,0,0,1,0,.75l-.86.87L2.33,2Zm16,19.4c-1.53,1.53-6.72-.38-12-5.67A26.25,26.25,0,0,1,1.78,7.47C.81,5.3.7,3.62,1.48,2.84l.16-.17L7.06,8.08c-.32,1.23.9,3.16,2.3,4.56C10.61,13.89,12.28,15,13.49,15a2,2,0,0,0,.43-.05l5.4,5.4Zm1.72-1.72-.87.87-5.28-5.28.87-.86a.53.53,0,0,1,.75,0h0l4.53,4.53A.53.53,0,0,1,20.88,18.8Z"/></svg>